<svg xmlns="http://www.w3.org/2000/svg" xmlns:xlink="http://www.w3.org/1999/xlink" version="1.1" id="Layer_1" x="0px" y="0px" width="100px" height="100px" viewBox="5.0 -10.0 100.0 135.0" enable-background="new 0 0 100 100" xml:space="preserve">
<path d="M20.585,23.952c-2.009,2.01-5.266,2.01-7.274,0c-2.009-2.008-2.009-5.266,0-7.274c2.008-2.009,5.265-2.009,7.274,0  C22.594,18.687,22.594,21.944,20.585,23.952z M34.375,30.074c-2.009-2.01-5.266-2.01-7.275,0c-2.008,2.009-2.008,5.267,0,7.274  c2.01,2.009,5.267,2.009,7.275,0C36.384,35.341,36.384,32.083,34.375,30.074z M48.963,44.663c-2.008-2.011-5.266-2.011-7.273,0  c-2.01,2.008-2.01,5.265,0,7.273c2.007,2.009,5.266,2.009,7.273,0C50.972,49.928,50.972,46.67,48.963,44.663z M54.062,55.768  l16.285,32.155l2.636-15.642l16.63-2.808L54.062,55.768z"/></svg>