<svg xmlns="http://www.w3.org/2000/svg" xmlns:xlink="http://www.w3.org/1999/xlink" version="1.1" id="Your_Icon" x="0px" y="0px" width="100px" height="100px" viewBox="5.0 -10.0 100.0 135.0" enable-background="new 0 0 100 100" xml:space="preserve">
<path d="M86.071,5c0,0-34.313,0-55.808,0H13.848c-6.565,0-6.52,6.576-6.52,6.576s0,65.658,0,72.224c0,5.669,4.815,6.426,6.143,6.528  V95l6.394-3.048L26.589,95v-4.656h59.483c0,0,4.107,0,5.817-3.321H26.589v-1.826H13.472v1.806c-0.83-0.091-2.928-0.58-2.928-3.217  c0,0,0.022-3.238,3.305-3.238c2.543,0,55.08,0,78.823,0c0-3.321,0-3.312,0-3.312s0-59.092,0-65.658C92.672,5.011,86.071,5,86.071,5z   M82.543,43.355H18.785V23.762h63.759V43.355z"/></svg>