<svg xmlns="http://www.w3.org/2000/svg" xmlns:xlink="http://www.w3.org/1999/xlink" version="1.1" id="Your_Icon" x="0px" y="0px" width="100px" height="100px" viewBox="5.0 -10.0 100.0 135.0" enable-background="new 0 0 100 100" xml:space="preserve">
<g>
	<g>
		<path fill="#000000" d="M58.879,49.042c7.508,0,13.586-6.081,13.586-13.584c0-7.5-6.078-13.578-13.586-13.578    c-7.496,0-13.571,6.078-13.571,13.578C45.308,42.962,51.383,49.042,58.879,49.042z M52.736,27.268    c0-0.872,0.578-1.238,1.363-0.784l14.16,8.178c0.781,0.448,0.781,1.153,0,1.607L54.1,44.435c-0.785,0.419-1.363,0.092-1.363-0.819    V27.268z"/>
		<path fill="#000000" d="M20,9v50h76.486V9H20z M93.24,56.258H23.247V11.743H93.24V56.258L93.24,56.258z"/>
	</g>
	<path fill="#000000" d="M16.781,43.11c0,2.706-2.192,4.89-4.891,4.89C9.185,48,7,45.815,7,43.11c0-2.698,2.185-4.891,4.89-4.891   C14.589,38.219,16.781,40.412,16.781,43.11z"/>
	<path fill="#000000" d="M28.126,39.611c1.459,0,2.625,1.73,1.283,3.351l-5.074,9.796c-1.356,1.65-3.16,2.588-4.972,2.588   c-0.571,0-1.136-0.088-1.693-0.285l-0.015,39.16c0,1.51-1.225,2.779-2.741,2.779c-1.512,0-2.742-1.145-2.742-2.654l0.006-22.84   h-1.217l-0.008,22.854c0,1.512-1.225,2.59-2.742,2.59c-1.51,0-2.734-1.195-2.734-2.715V54.643H4.751v14.664   c0,1.1-0.917,1.65-1.833,1.65s-1.833-0.551-1.833-1.65V54.121c0-3.52,1.826-6.342,5.287-6.342h10.616   c1.746,0,2.712,0.308,3.659,1.349l1.084,0.008l4.708-8.638C26.96,39.868,27.562,39.611,28.126,39.611z"/>
</g></svg>